<svg xmlns="http://www.w3.org/2000/svg" viewBox="0 0 1024 1024" role="img" aria-labelledby="title desc">
  <title id="title">JAWS Desktop Logo</title>
  <desc id="desc">Original blue shark jaws logo rising through water spray.</desc>
  <defs>
    <linearGradient id="deepBlue" x1="212" x2="812" y1="184" y2="908" gradientUnits="userSpaceOnUse">
      <stop offset="0" stop-color="#4cb8e8" />
      <stop offset="0.42" stop-color="#176da3" />
      <stop offset="1" stop-color="#08314d" />
    </linearGradient>
    <linearGradient id="mouth" x1="512" x2="512" y1="328" y2="756" gradientUnits="userSpaceOnUse">
      <stop offset="0" stop-color="#171318" />
      <stop offset="1" stop-color="#030507" />
    </linearGradient>
    <filter id="softShadow" x="-20%" y="-20%" width="140%" height="140%">
      <feDropShadow dx="0" dy="24" flood-color="#02111e" flood-opacity="0.38" stdDeviation="20" />
    </filter>
  </defs>

  <rect width="1024" height="1024" rx="196" fill="#07131f" />
  <path
    d="M120 720c88-44 170-52 246-25 64 22 126 18 189-12 78-38 160-39 248-3 47 20 89 23 126 9v204H120Z"
    fill="#0c4b73"
  />
  <path
    d="M124 703c75-31 139-33 190-8 70 35 147 32 229-11 82-42 161-43 236-2 54 30 99 34 133 13"
    fill="none"
    stroke="#58cef0"
    stroke-linecap="round"
    stroke-width="24"
  />
  <path
    d="M219 682c31-136 83-247 156-335 44-54 90-88 137-104 47 16 93 50 137 104 73 88 125 199 156 335-66 88-160 139-293 139s-227-51-293-139Z"
    fill="url(#deepBlue)"
    filter="url(#softShadow)"
  />
  <path
    d="M512 245c-78 82-132 176-162 283-19 68-28 123-27 166-42-1-77-8-104-21 31-134 82-243 154-326 46-54 92-88 139-102Z"
    fill="#6fc9ec"
    opacity="0.28"
  />
  <path
    d="M333 650c19-123 68-224 146-303 20-20 46-20 66 0 78 79 127 180 146 303-52 72-112 108-179 108s-127-36-179-108Z"
    fill="url(#mouth)"
  />
  <path
    d="M372 596c34-60 79-97 140-111 61 14 106 51 140 111-23 36-55 61-96 73-30 9-58 9-88 0-41-12-73-37-96-73Z"
    fill="#6d111a"
  />
  <path
    d="M348 558 386 435l34 126 38-156 35 160 34-160 38 156 34-126 38 123"
    fill="#f6fbf7"
    stroke="#d6e9e9"
    stroke-linejoin="round"
    stroke-width="6"
  />
  <path
    d="M358 641 397 730l29-101 42 119 44-119 44 119 42-119 29 101 39-89"
    fill="#f6fbf7"
    stroke="#d6e9e9"
    stroke-linejoin="round"
    stroke-width="6"
  />
  <path d="M294 535c-64-48-122-63-174-46 31-56 91-79 180-67Z" fill="#2b8ec1" />
  <path d="M730 535c64-48 122-63 174-46-31-56-91-79-180-67Z" fill="#2b8ec1" />
  <path
    d="M252 365c36-23 77-40 123-51M649 314c46 11 87 28 123 51M188 617c-34-19-69-24-104-15M836 617c34-19 69-24 104-15"
    fill="none"
    stroke="#9be8fb"
    stroke-linecap="round"
    stroke-width="18"
  />
  <path
    d="M418 234c28-58 60-96 96-114 35 18 66 56 94 114-31-12-62-18-94-18-33 0-65 6-96 18Z"
    fill="#65c7ef"
  />
  <path
    d="M444 838h136c44 0 83 22 107 59H337c24-37 63-59 107-59Z"
    fill="#0a253b"
    opacity="0.72"
  />
</svg>
